<svg xmlns="http://www.w3.org/2000/svg" viewBox="0 0 512 512">
  <rect width="512" height="512" rx="112" fill="#0b1020"/>
  <circle cx="256" cy="256" r="154" fill="#f9fafb"/>
  <path d="M256 119l82 60-31 96H205l-31-96z" fill="#111827"/>
  <path d="M119 244l86 31 31 96-73 52c-33-42-49-96-44-179zM393 244c5 83-11 137-44 179l-73-52 31-96z" fill="#111827"/>
  <path d="M174 179l-55 65M338 179l55 65M205 275l-42 148M307 275l42 148" stroke="#111827" stroke-width="20" stroke-linecap="round"/>
  <circle cx="256" cy="256" r="202" fill="none" stroke="#22c55e" stroke-width="18"/>
</svg>
